<svg width="128" height="128" viewBox="0 0 128 128" fill="none" xmlns="http://www.w3.org/2000/svg">
<rect width="128" height="128" rx="32" fill="#1F1E24"/>
<g clip-path="url(#clip0_1328_124)">
<path d="M78.7348 57.1444L101.898 66.8367C102.232 66.9761 102.597 67.0223 102.955 66.9704C103.313 66.9185 103.65 66.7705 103.931 66.5421C104.211 66.3137 104.425 66.0135 104.548 65.6734C104.672 65.3334 104.701 64.9662 104.632 64.611L98.3854 32.4276C98.3185 32.0821 98.1616 31.7604 97.9305 31.4949C97.6995 31.2295 97.4025 31.0297 97.0695 30.9158C96.7366 30.8018 96.3795 30.7778 96.0342 30.846C95.689 30.9142 95.3679 31.0723 95.1033 31.3043L76.8295 47.3276M26.2792 38.8029L65.5465 31.1816C69.8838 30.3398 74.0824 33.1735 74.9242 37.5108L81.0212 68.9246C81.863 73.2619 79.0293 77.4605 74.692 78.3023L35.4248 85.9236C31.0874 86.7654 26.8889 83.9317 26.0471 79.5944L19.95 48.1806C19.1082 43.8432 21.9419 39.6447 26.2792 38.8029Z" stroke="white" stroke-width="10" stroke-linecap="round" stroke-linejoin="round"/>
</g>
<path d="M110 81C110 84.3137 101.941 87 92 87C82.0589 87 74 84.3137 74 81M110 81C110 77.6863 101.941 75 92 75C82.0589 75 74 77.6863 74 81M110 81V109C110 110.591 108.104 112.117 104.728 113.243C101.352 114.368 96.7739 115 92 115C87.2261 115 82.6477 114.368 79.2721 113.243C75.8964 112.117 74 110.591 74 109V81M74 95C74 96.5913 75.8964 98.1174 79.2721 99.2426C82.6477 100.368 87.2261 101 92 101C96.7739 101 101.352 100.368 104.728 99.2426C108.104 98.1174 110 96.5913 110 95" stroke="#DE8C00" stroke-width="6" stroke-linecap="round" stroke-linejoin="round"/>
<defs>
<clipPath id="clip0_1328_124">
<rect width="96" height="96" fill="white" transform="translate(6 18.291) rotate(-10.9838)"/>
</clipPath>
</defs>
</svg>
